<?xml version="1.0" encoding="UTF-8"?>
<svg width="20px" height="20px" viewBox="0 0 20 20" version="1.1" xmlns="http://www.w3.org/2000/svg" xmlns:xlink="http://www.w3.org/1999/xlink">
    <title>Icon/20px/loading-试</title>
    <g id="Icon/20px/loading-试" stroke="none" stroke-width="1" fill="none" fill-rule="evenodd">
        <g id="Icon/20px/loading">
            <g>
                <g>
                    <rect id="矩形" opacity="0.300000012" x="0" y="0" width="20" height="20"></rect>
                    <path d="M12.1768374,5.02960707 C12.3277175,4.76827501 12.6481231,4.6641952 12.9137822,4.7632448 L13,4.80384758 C13.2869756,4.969533 13.3811875,5.34361145 13.2160679,5.62960707 L12.3231626,7.1761643 C12.1722825,7.43749635 11.8518769,7.54157617 11.5862178,7.44252657 L11.5,7.40192379 C11.2130244,7.23623836 11.1188125,6.86215992 11.2839321,6.5761643 L12.1768374,5.02960707 Z" id="tableview_loading" fill="#00A9BB" opacity="0.05"></path>
                    <path d="M14.3703929,6.78393214 C14.631725,6.63305201 14.9612443,6.70311903 15.141787,6.92172808 L15.1961524,7 C15.3618378,7.28697557 15.2563886,7.65804298 14.9703929,7.82316262 L13.4238357,8.71606786 C13.1625036,8.86694799 12.8329844,8.79688097 12.6524416,8.57827192 L12.5980762,8.5 C12.4323908,8.21302443 12.5378401,7.84195702 12.8238357,7.67683738 L14.3703929,6.78393214 Z" id="路径" fill="#00A9BB" opacity="0.100000001"></path>
                    <path d="M15.3929052,9.4 C15.6946655,9.4 15.945004,9.62543945 15.9920542,9.90503184 L16,10 C16,10.3313708 15.7231445,10.6 15.3929052,10.6 L13.6070948,10.6 C13.3053345,10.6 13.054996,10.3745605 13.0079458,10.0949682 L13,10 C13,9.66862915 13.2768555,9.4 13.6070948,9.4 L15.3929052,9.4 Z" id="路径" fill="#00A9BB" opacity="0.149999991"></path>
                    <rect id="tableview_loading" fill="#00A9BB" opacity="0.200000003" x="13.2971143" y="10.75" width="1.2" height="3" rx="0.6"></rect>
                    <rect id="tableview_loading" fill="#00A9BB" opacity="0.300000012" x="11.65" y="12.3971143" width="1.2" height="3" rx="0.6"></rect>
                    <path d="M9.4,13.6070948 C9.4,13.3053345 9.62543945,13.054996 9.90503184,13.0079458 L10,13 C10.3313708,13 10.6,13.2768555 10.6,13.6070948 L10.6,15.3929052 C10.6,15.6946655 10.3745605,15.945004 10.0949682,15.9920542 L10,16 C9.66862915,16 9.4,15.7231445 9.4,15.3929052 L9.4,13.6070948 Z" id="路径" fill="#00A9BB" opacity="0.400000006"></path>
                    <path d="M7.67683738,12.8238357 C7.82771751,12.5625036 8.14812307,12.4584238 8.41378223,12.5574734 L8.5,12.5980762 C8.78697557,12.7637616 8.88118751,13.1378401 8.71606786,13.4238357 L7.82316262,14.9703929 C7.67228249,15.231725 7.35187693,15.3358048 7.08621777,15.2367552 L7,15.1961524 C6.71302443,15.030467 6.61881249,14.6563886 6.78393214,14.3703929 L7.67683738,12.8238357 Z" id="路径" fill="#00A9BB" opacity="0.5"></path>
                    <path d="M6.5761643,11.2839321 C6.83749635,11.133052 7.16701562,11.203119 7.3475584,11.4217281 L7.40192379,11.5 C7.56760921,11.7869756 7.46215992,12.158043 7.1761643,12.3231626 L5.62960707,13.2160679 C5.36827501,13.366948 5.03875574,13.296881 4.85821296,13.0782719 L4.80384758,13 C4.63816215,12.7130244 4.74361145,12.341957 5.02960707,12.1768374 L6.5761643,11.2839321 Z" id="路径" fill="#00A9BB" opacity="0.600000024"></path>
                    <path d="M6.39290524,9.4 C6.6946655,9.4 6.94500405,9.62543945 6.99205415,9.90503184 L7,10 C7,10.3313708 6.72314453,10.6 6.39290524,10.6 L4.60709476,10.6 C4.3053345,10.6 4.05499595,10.3745605 4.00794585,10.0949682 L4,10 C4,9.66862915 4.27685547,9.4 4.60709476,9.4 L6.39290524,9.4 Z" id="路径" fill="#00A9BB" opacity="0.699999988"></path>
                    <path d="M7.1761643,7.67683738 C7.43749635,7.82771751 7.54157617,8.14812307 7.44252657,8.41378223 L7.40192379,8.5 C7.23623836,8.78697557 6.86215992,8.88118751 6.5761643,8.71606786 L5.02960707,7.82316262 C4.76827501,7.67228249 4.6641952,7.35187693 4.7632448,7.08621777 L4.80384758,7 C4.969533,6.71302443 5.34361145,6.61881249 5.62960707,6.78393214 L7.1761643,7.67683738 Z" id="路径" fill="#00A9BB" opacity="0.800000012"></path>
                    <path d="M8.71606786,6.5761643 C8.86694799,6.83749635 8.79688097,7.16701562 8.57827192,7.3475584 L8.5,7.40192379 C8.21302443,7.56760921 7.84195702,7.46215992 7.67683738,7.1761643 L6.78393214,5.62960707 C6.63305201,5.36827501 6.70311903,5.03875574 6.92172808,4.85821296 L7,4.80384758 C7.28697557,4.63816215 7.65804298,4.74361145 7.82316262,5.02960707 L8.71606786,6.5761643 Z" id="路径" fill="#00A9BB" opacity="0.900000036"></path>
                    <path d="M9.4,4.60709476 C9.4,4.3053345 9.62543945,4.05499595 9.90503184,4.00794585 L10,4 C10.3313708,4 10.6,4.27685547 10.6,4.60709476 L10.6,6.39290524 C10.6,6.6946655 10.3745605,6.94500405 10.0949682,6.99205415 L10,7 C9.66862915,7 9.4,6.72314453 9.4,6.39290524 L9.4,4.60709476 Z" id="路径" fill="#00A9BB"></path>
                </g>
            </g>
        </g>
    </g>
</svg>